<svg width="1838" height="466" viewBox="0 0 1838 466" fill="none" xmlns="http://www.w3.org/2000/svg">
    <g clip-path="url(#clip0)">
        <path fill-rule="evenodd" clip-rule="evenodd" d="M775.929 536.961C771.358 536.961 759.748 535.478 751.521 535.034C744.842 534.69 742.175 534.005 735.29 533.975C734.991 533.975 734.693 533.936 734.411 533.859C733.319 533.552 732.204 533.298 731.071 533.101C729.69 532.967 728.293 532.614 726.969 532.734C716.66 533.691 706.491 531.916 696.243 531.873C693.043 531.86 689.842 532.235 686.641 532.442C684.905 532.558 683.163 532.657 681.437 532.842C679.556 533.04 677.685 533.626 675.871 533.523C671.006 533.238 666.186 532.48 661.321 532.261C647.261 531.615 633.178 531.141 619.107 530.598C618.735 530.631 618.358 530.615 617.993 530.551C611.926 528.484 606.082 530.818 600.132 531.042C594.888 531.24 589.578 531.408 584.312 531.322C567.575 531.055 551.01 532.597 534.389 533.738C523.708 534.47 512.92 534.388 502.183 534.423C495.648 534.444 489.114 533.846 482.573 533.777C474.781 533.691 466.988 534.104 459.195 533.863C452.36 533.665 445.369 533.432 438.784 532.14C430.707 530.568 422.631 531.162 414.565 530.732C394.867 529.664 375.179 528.471 355.469 527.51C332.892 526.412 310.31 528.342 287.712 527.554C260.125 526.594 232.751 524.295 205.332 526.199C185.015 527.607 164.671 524.778 144.332 525.936C114.089 527.622 83.8456 523.297 53.6026 524.94C48.426 525.22 43.2327 525.362 38.0506 525.599C36.865 525.655 35.6905 525.853 34.5105 525.982C34.5105 525.982 32.6551 525.982 28.9443 525.982C23.3781 525.982 13.0194 526.715 4.96505 526.026C3.33972 525.888 1.66986 525.961 0 525.961V0C1.39155 0.0301488 2.7831 0.0301488 4.17465 0.0301488H1870V531.9C1863.1 531.417 1856.31 532.806 1849.49 532.488C1827 531.432 1804.51 531.323 1782 530.535C1754.3 529.566 1726.83 528.262 1699.3 530.17C1678.98 531.582 1658.64 530.749 1638.3 531.908C1608.06 533.59 1577.81 535.254 1547.57 536.899C1542.38 537.179 1537.19 535.325 1532.01 535.562C1530.82 535.618 1529.65 535.816 1528.47 535.945C1527.75 535.957 1525.9 535.957 1522.9 535.945C1518.41 535.928 1506.72 535.465 1498.52 535.034C1492.45 534.72 1492.05 534.164 1486.96 534.044C1486.09 534.035 1485.23 533.916 1484.42 533.691C1482.97 533.264 1477.93 533.583 1478.06 533.101C1476.68 532.967 1475.28 532.614 1473.95 532.734C1463.64 533.691 1453.48 531.916 1443.23 531.873C1440.03 531.86 1436.83 532.235 1433.63 532.442C1431.89 532.558 1430.15 532.657 1428.42 532.842C1426.54 533.04 1424.67 533.626 1422.86 533.523C1417.99 533.238 1413.17 532.48 1408.31 532.261C1394.24 531.615 1380.16 531.141 1366.09 530.598C1365.72 530.631 1365.34 530.615 1364.98 530.551C1358.91 528.484 1353.07 530.818 1347.12 531.042C1341.87 531.24 1336.56 531.408 1331.3 531.322C1314.56 531.055 1297.99 532.597 1281.37 533.738C1270.69 534.47 1259.9 534.388 1249.17 534.423C1242.63 534.444 1236.1 533.846 1229.56 533.777C1221.77 533.691 1213.97 534.104 1206.18 533.863C1199.34 533.665 1192.35 533.432 1185.77 532.14C1177.69 530.568 1169.62 531.162 1161.55 530.732C1141.85 529.664 1122.16 528.471 1102.45 527.51C1079.88 526.412 1057.3 525.348 1034.7 524.56C1007.11 523.599 979.741 526.291 952.316 528.195C932 529.603 911.655 530.766 891.316 531.925C861.077 533.61 830.834 535.274 800.587 536.917C795.411 537.197 790.817 536.662 785.635 536.899C784.45 536.955 782.675 536.832 781.495 536.961C780.832 536.961 778.976 536.961 775.929 536.961Z" fill="url(#paint0_linear)"/>
        <mask id="mask0" mask-type="alpha" maskUnits="userSpaceOnUse" x="0" y="0" width="1870" height="537">
            <path fill-rule="evenodd" clip-rule="evenodd" d="M775.929 536.961C771.358 536.961 759.748 535.478 751.521 535.034C744.842 534.69 742.175 534.005 735.29 533.975C734.991 533.975 734.693 533.936 734.411 533.859C733.319 533.552 732.204 533.298 731.071 533.101C729.69 532.967 728.293 532.614 726.969 532.734C716.66 533.691 706.491 531.916 696.243 531.873C693.043 531.86 689.842 532.235 686.641 532.442C684.905 532.558 683.163 532.657 681.437 532.842C679.556 533.04 677.685 533.626 675.871 533.523C671.006 533.238 666.186 532.48 661.321 532.261C647.261 531.615 633.178 531.141 619.107 530.598C618.735 530.631 618.358 530.615 617.993 530.551C611.926 528.484 606.082 530.818 600.132 531.042C594.888 531.24 589.578 531.408 584.312 531.322C567.575 531.055 551.01 532.597 534.389 533.738C523.708 534.47 512.92 534.388 502.183 534.423C495.648 534.444 489.114 533.846 482.573 533.777C474.781 533.691 466.988 534.104 459.195 533.863C452.36 533.665 445.369 533.432 438.784 532.14C430.707 530.568 422.631 531.162 414.565 530.732C394.867 529.664 375.179 528.471 355.469 527.51C332.892 526.412 310.31 528.342 287.712 527.554C260.125 526.594 232.751 524.295 205.332 526.199C185.015 527.607 164.671 524.778 144.332 525.936C114.089 527.622 83.8456 523.297 53.6026 524.94C48.426 525.22 43.2327 525.362 38.0506 525.599C36.865 525.655 35.6905 525.853 34.5105 525.982C34.5105 525.982 32.6551 525.982 28.9443 525.982C23.3781 525.982 13.0194 526.715 4.96505 526.026C3.33972 525.888 1.66986 525.961 0 525.961V0C1.39155 0.0301488 2.7831 0.0301488 4.17465 0.0301488H1870V531.9C1863.1 531.417 1856.31 532.806 1849.49 532.488C1827 531.432 1804.51 531.323 1782 530.535C1754.3 529.566 1726.83 528.262 1699.3 530.17C1678.98 531.582 1658.64 530.749 1638.3 531.908C1608.06 533.59 1577.81 535.254 1547.57 536.899C1542.38 537.179 1537.19 535.325 1532.01 535.562C1530.82 535.618 1529.65 535.816 1528.47 535.945C1527.75 535.957 1525.9 535.957 1522.9 535.945C1518.41 535.928 1506.72 535.465 1498.52 535.034C1492.45 534.72 1492.05 534.164 1486.96 534.044C1486.09 534.035 1485.23 533.916 1484.42 533.691C1482.97 533.264 1477.93 533.583 1478.06 533.101C1476.68 532.967 1475.28 532.614 1473.95 532.734C1463.64 533.691 1453.48 531.916 1443.23 531.873C1440.03 531.86 1436.83 532.235 1433.63 532.442C1431.89 532.558 1430.15 532.657 1428.42 532.842C1426.54 533.04 1424.67 533.626 1422.86 533.523C1417.99 533.238 1413.17 532.48 1408.31 532.261C1394.24 531.615 1380.16 531.141 1366.09 530.598C1365.72 530.631 1365.34 530.615 1364.98 530.551C1358.91 528.484 1353.07 530.818 1347.12 531.042C1341.87 531.24 1336.56 531.408 1331.3 531.322C1314.56 531.055 1297.99 532.597 1281.37 533.738C1270.69 534.47 1259.9 534.388 1249.17 534.423C1242.63 534.444 1236.1 533.846 1229.56 533.777C1221.77 533.691 1213.97 534.104 1206.18 533.863C1199.34 533.665 1192.35 533.432 1185.77 532.14C1177.69 530.568 1169.62 531.162 1161.55 530.732C1141.85 529.664 1122.16 528.471 1102.45 527.51C1079.88 526.412 1057.3 525.348 1034.7 524.56C1007.11 523.599 979.741 526.291 952.316 528.195C932 529.603 911.655 530.766 891.316 531.925C861.077 533.61 830.834 535.274 800.587 536.917C795.411 537.197 790.817 536.662 785.635 536.899C784.45 536.955 782.675 536.832 781.495 536.961C780.832 536.961 778.976 536.961 775.929 536.961Z" fill="white"/>
        </mask>
        <g mask="url(#mask0)">
            <mask id="mask1" mask-type="alpha" maskUnits="userSpaceOnUse" x="0" y="-41" width="1873" height="626">
                <rect y="-40.177" width="1872.4" height="624.316" fill="white"/>
            </mask>
            <g mask="url(#mask1)">
                <path fill-rule="evenodd" clip-rule="evenodd" d="M0 574.043V-40.177H1873.25V568.82C1861.23 566.307 1848.02 565.545 1837.91 563.38C1786.16 552.305 1751.41 547.16 1700.3 551.428C1641.52 556.338 1581.65 546.843 1522.85 552.328C1479.95 556.331 1438.77 564.494 1394.82 562.343C1354.26 560.358 1314.77 552.571 1274.45 549.39C1233.04 546.124 1187.24 557.8 1145.74 560.121C1103.72 562.47 1061.99 556.982 1020.6 552.144C981.404 547.562 940.617 556.173 901.098 553.473C845.118 549.65 797.668 554.434 742.811 554.434C680.339 554.434 616.139 549.713 555.347 558.709C493.488 567.863 430.865 539.456 368.49 546.615C336.4 550.299 305.179 558.02 273.374 562.582C230.242 568.769 185.972 555.38 142.471 560.372C94.0187 565.934 49.4037 579.086 0.00547021 574.043H0Z" fill="#DFE3EA"/>
                <mask id="mask2" mask-type="alpha" maskUnits="userSpaceOnUse" x="0" y="-41" width="1874" height="617">
                    <path fill-rule="evenodd" clip-rule="evenodd" d="M0 574.043V-40.177H1873.25V568.82C1861.23 566.307 1848.02 565.545 1837.91 563.38C1786.16 552.305 1751.41 547.16 1700.3 551.428C1641.52 556.338 1581.65 546.843 1522.85 552.328C1479.95 556.331 1438.77 564.494 1394.82 562.343C1354.26 560.358 1314.77 552.571 1274.45 549.39C1233.04 546.124 1187.24 557.8 1145.74 560.121C1103.72 562.47 1061.99 556.982 1020.6 552.144C981.404 547.562 940.617 556.173 901.098 553.473C845.118 549.65 797.668 554.434 742.811 554.434C680.339 554.434 616.139 549.713 555.347 558.709C493.488 567.863 430.865 539.456 368.49 546.615C336.4 550.299 305.179 558.02 273.374 562.582C230.242 568.769 185.972 555.38 142.471 560.372C94.0187 565.934 49.4037 579.086 0.00547021 574.043H0Z" fill="white"/>
                </mask>
                <g mask="url(#mask2)">
                    <path fill-rule="evenodd" clip-rule="evenodd" d="M78.1168 20.3368C25.0153 -9.62846 -25.8412 39.5509 -14.9905 88.6459C-1.12246 151.401 -53.4144 167.601 -20.5964 202.707C7.86947 233.157 56.5193 200.383 91.6085 156.478C126.699 112.572 114.409 40.8171 78.1168 20.3368Z" fill="#E3E8F0"/>
                    <path fill-rule="evenodd" clip-rule="evenodd" d="M-47.2735 125.602C-223.583 218.865 -179.581 437.401 -26.0983 489.646C170.084 556.424 121.398 724.108 275.698 693.989C409.535 667.864 406.447 482.49 348.827 315.159C291.206 147.827 73.2297 61.8598 -47.2735 125.602Z" fill="#F1F3F6"/>
                    <path fill-rule="evenodd" clip-rule="evenodd" d="M-12.6274 111.999C24.7243 101.723 67.6873 102.286 110.912 112.274C108.217 128.08 101.984 143.496 91.6085 156.478C56.5193 200.383 7.86945 233.157 -20.5964 202.707C-48.9146 172.414 -13.8604 156.198 -12.6274 111.999Z" fill="#DFE3EA"/>
                    <path opacity="0.296991" d="M-53.9108 431.402L-16.0472 408.05C14.2828 389.346 52.5621 389.346 82.8911 408.05C108.423 423.795 140.645 423.795 166.175 408.051L169.207 406.182L169.215 406.177L178.099 400.698C197.07 388.998 221.016 388.998 239.989 400.698L246.53 404.733C272.526 420.764 305.336 420.764 331.331 404.733L333.877 403.163C355.3 389.951 382.337 389.951 403.76 403.162L410.254 407.168L415.17 399.194L408.676 395.188C384.239 380.119 353.399 380.119 328.964 395.187L326.416 396.759C303.435 410.931 274.427 410.931 251.445 396.759L244.904 392.724C222.918 379.166 195.168 379.166 173.183 392.724L164.301 398.202L161.261 400.077C138.744 413.963 110.324 413.962 87.8057 400.076C54.4637 379.514 12.3813 379.514 -20.9619 400.076L-58.8257 423.428L-53.9108 431.402Z" fill="#E3E8F0"/>
                    <path opacity="0.296991" d="M-53.9108 463.975L-16.0472 440.623C14.2828 421.919 52.5621 421.919 82.8911 440.623C108.423 456.369 140.646 456.37 166.175 440.624L169.207 438.755L169.215 438.75L178.099 433.271C197.07 421.571 221.016 421.571 239.989 433.271L246.53 437.306C272.526 453.338 305.336 453.338 331.331 437.306L333.874 435.739C355.3 422.525 382.337 422.525 403.759 435.736L410.255 439.742C441.114 458.773 480.066 458.773 510.928 439.741L506.013 431.767C478.164 448.94 443.016 448.94 415.169 431.767L408.674 427.762C384.239 412.692 353.398 412.692 328.964 427.762L326.416 429.332C303.435 443.505 274.427 443.505 251.445 429.332L244.904 425.297C222.918 411.739 195.168 411.739 173.183 425.297L164.301 430.776L161.261 432.65C138.744 446.537 110.324 446.537 87.8059 432.649C54.4637 412.087 12.3813 412.087 -20.9619 432.649L-58.8257 456.001L-53.9108 463.975Z" fill="#E3E8F0"/>
                    <path opacity="0.296991" d="M326.416 461.905C303.435 476.079 274.427 476.079 251.445 461.905L244.904 457.871C222.918 444.312 195.168 444.312 173.183 457.871L164.435 463.266L164.301 463.349L161.261 465.223C138.744 479.11 110.324 479.11 87.8057 465.223C54.4637 444.661 12.3813 444.661 -20.9619 465.223C-49.8309 483.027 -49.8309 483.027 -58.8256 488.574L-53.911 496.549C-44.9163 491.002 -44.9163 491.002 -16.0472 473.198C14.2828 454.494 52.5622 454.494 82.8911 473.198C108.423 488.943 140.646 488.943 166.175 473.198L169.215 471.324L178.098 465.846C197.07 454.144 221.016 454.144 239.989 465.846L246.53 469.879C272.526 485.911 305.336 485.911 331.331 469.879L333.877 468.31C355.3 455.098 382.337 455.098 403.759 468.309L410.255 472.315C441.114 491.347 480.066 491.347 510.927 472.314C534.712 457.647 564.731 457.646 588.515 472.313L591.496 474.152L635.735 501.435L640.649 493.461L596.412 466.179L593.429 464.339C566.633 447.814 532.81 447.814 506.012 464.34C478.164 481.514 443.016 481.514 415.17 464.34L408.674 460.335C384.239 445.265 353.398 445.265 328.964 460.335L326.416 461.905Z" fill="#E3E8F0"/>
                    <path fill-rule="evenodd" clip-rule="evenodd" d="M928.01 284.163C954.857 198.864 1042.47 197.742 1098.16 249.611C1159.21 306.479 1254.79 275.125 1246.5 335.524C1238.22 395.923 1153.7 426.628 1068.1 414.881C982.499 403.135 909.662 342.461 928.01 284.163Z" fill="#F1F3F6"/>
                    <path fill-rule="evenodd" clip-rule="evenodd" d="M644.287 -47.0213C633.516 -117.605 714.141 -155.917 766.524 -125.334C833.48 -86.2428 876.25 -138.561 902.275 -88.7008C924.85 -45.453 864.387 -3.43645 797.111 19.2468C729.835 41.9311 651.649 1.21904 644.287 -47.0213Z" fill="#F1F3F6"/>
                    <path fill-rule="evenodd" clip-rule="evenodd" d="M1787.54 852.692C1819.13 808.414 1878.97 293.894 1646.3 92.2771C1387.01 -132.405 1255.38 278.306 1104.09 343.099C950.599 408.833 872.374 273.935 722.538 347.616C542.783 436.011 582.422 611.057 649.816 742.334C717.209 873.612 931.892 595.737 1047.63 748.826C1106.96 827.298 1008.75 1014.31 1158.56 1058.07C1234 1080.1 1636.5 1064.42 1787.54 852.692Z" fill="#F1F3F6"/>
                    <path fill-rule="evenodd" clip-rule="evenodd" d="M1500.12 1049.97C1539.4 1023.86 1737.17 662.765 1598.96 473.163C1444.94 261.872 1225.66 504.442 1079.69 522.917C931.599 541.661 895.141 459.274 747.848 484.453C571.143 514.662 554.392 648.781 573.548 756.439C592.706 864.096 853.097 703.328 906.722 835.849C934.21 903.777 797.942 1020.67 911.573 1080.47C968.797 1110.58 1312.27 1174.83 1500.12 1049.97Z" fill="#DFE3EA"/>
                    <path fill-rule="evenodd" clip-rule="evenodd" d="M1363.4 116.602C1377.12 95.9104 1360.19 75.7289 1340.79 79.7552C1315.99 84.902 1311.85 64.3112 1296.97 77.0214C1284.06 88.0462 1294.75 107.285 1310.28 121.257C1325.81 135.229 1354.02 130.745 1363.4 116.602Z" fill="#F1F3F6"/>
                    <path fill-rule="evenodd" clip-rule="evenodd" d="M1361.03 84.9863C1368.82 91.9083 1371.64 104.163 1363.4 116.602C1355.4 128.658 1333.73 133.695 1317.88 126.265C1331.88 111.501 1346.24 97.5421 1361.03 84.9863V84.9863Z" fill="#DFE3EA"/>
                    <path fill-rule="evenodd" clip-rule="evenodd" d="M1774.86 62.8765C1776.59 137.172 1720.63 157.215 1673.38 127.771C1621.57 95.4891 1567.22 141.524 1559.11 91.2604C1551.01 40.9965 1598.42 -2.1035 1655.95 -11.3828C1713.48 -20.662 1773.69 12.0983 1774.86 62.8765Z" fill="#F1F3F6"/>
                    <path fill-rule="evenodd" clip-rule="evenodd" d="M1569.39 41.698C1593.76 52.423 1619.34 68.9153 1646.3 92.2771C1661.37 105.339 1675.22 119.714 1687.92 135.19C1683.03 133.229 1678.15 130.753 1673.37 127.771C1621.56 95.4891 1567.21 141.524 1559.11 91.2604C1556.23 73.4438 1560.34 56.5269 1569.39 41.698Z" fill="#E3E8F0"/>
                </g>
                <path fill-rule="evenodd" clip-rule="evenodd" d="M1770 572.234C1877.64 594.14 1930.02 488.796 1883.89 415.23C1821.96 316.467 1924.65 263.305 1853.37 225.506C1772.48 182.61 1721.85 282.508 1697.14 374.759C1672.43 467.011 1697.71 557.526 1770 572.234Z" fill="#F1F3F6"/>
                <mask id="mask3" mask-type="alpha" maskUnits="userSpaceOnUse" x="1687" y="215" width="214" height="361">
                    <path fill-rule="evenodd" clip-rule="evenodd" d="M1770 572.234C1877.64 594.14 1930.02 488.796 1883.89 415.23C1821.96 316.467 1924.65 263.305 1853.37 225.506C1772.48 182.609 1721.85 282.508 1697.14 374.759C1672.43 467.011 1697.71 557.526 1770 572.234Z" fill="white"/>
                </mask>
                <g mask="url(#mask3)">
                    <path fill-rule="evenodd" clip-rule="evenodd" d="M1755.04 248.423C1798.07 349.374 1814.84 468.003 1817.98 573.502C1803.57 575.995 1787.51 575.801 1769.98 572.234C1697.7 557.526 1672.42 467.011 1697.13 374.759C1709.62 328.122 1728.74 279.531 1755.04 248.423Z" fill="#DFE3EA"/>
                    <path opacity="0.3" d="M1802.43 487.078L1799 488.958C1769.71 505.035 1733.85 503.215 1706.34 484.254L1698.13 478.599C1659.57 452.033 1609.34 449.483 1568.29 472.007C1535.82 489.829 1496.07 487.812 1465.57 466.793L1461.8 464.194L1405.89 425.676L1400.58 433.391L1456.49 471.909L1460.26 474.508C1493.68 497.536 1537.22 499.746 1572.8 480.22C1610.74 459.399 1657.17 461.756 1692.81 486.313L1701.02 491.969C1731.46 512.938 1771.11 514.951 1803.51 497.171L1806.93 495.292C1838.33 478.062 1876.75 480.012 1906.24 500.332L1906.62 500.593L1914.53 506.037C1941.85 524.869 1977.46 526.676 2006.56 510.709C2012.49 507.457 2012.49 507.457 2018.49 504.161L2022.61 501.899C2053.38 485.014 2091.04 486.925 2119.94 506.84C2161.64 535.566 2215.96 538.324 2260.34 513.967C2299.18 492.652 2299.18 492.652 2311.28 486.011L2306.78 477.798C2294.68 484.439 2294.68 484.439 2255.84 505.754C2214.55 528.407 2164.03 525.843 2125.26 499.126C2093.44 477.202 2051.98 475.097 2018.11 493.686L2014 495.943C2007.98 499.244 2007.98 499.244 2002.06 502.495C1976.06 516.76 1944.25 515.145 1919.84 498.323L1911.93 492.877L1911.56 492.618C1879.15 470.289 1836.93 468.145 1802.43 487.078Z" fill="#E3E8F0"/>
                    <path opacity="0.3" d="M2308.92 435.303L2293.48 443.778C2277.72 452.427 2277.72 452.427 2257.98 463.259C2216.7 485.912 2166.18 483.348 2127.4 456.631C2095.58 434.706 2054.13 432.602 2020.25 451.191L2016.18 453.426L2004.2 460.001C1978.21 474.265 1946.4 472.65 1921.98 455.828C1917.86 452.986 1917.86 452.986 1913.7 450.122C1881.3 427.793 1839.07 425.65 1804.57 444.582L1803.43 445.211L1801.15 446.463C1771.85 462.54 1736 460.72 1708.48 441.759C1704.4 438.945 1704.4 438.945 1700.27 436.103C1661.72 409.538 1611.48 406.988 1570.44 429.512C1537.96 447.334 1498.22 445.317 1467.71 424.298L1463.94 421.701C1422.02 392.811 1422.02 392.811 1408.04 383.181L1402.73 390.896C1416.7 400.526 1416.7 400.526 1458.63 429.415L1462.4 432.013C1495.82 455.04 1539.36 457.25 1574.94 437.726C1612.88 416.904 1659.32 419.261 1694.96 443.818C1699.08 446.659 1699.08 446.659 1703.17 449.474C1733.6 470.443 1773.25 472.456 1805.65 454.676L1807.94 453.422L1809.08 452.793C1840.47 435.566 1878.9 437.517 1908.39 457.837C1912.55 460.701 1912.55 460.701 1916.67 463.542C1944 482.373 1979.61 484.181 2008.7 468.214L2020.64 461.667L2024.76 459.404C2055.53 442.518 2093.19 444.43 2122.09 464.346C2163.78 493.072 2218.1 495.829 2262.48 471.472C2282.22 460.64 2282.22 460.64 2297.98 451.991L2313.43 443.516L2308.92 435.303Z" fill="#E3E8F0"/>
                    <path opacity="0.3" d="M2311.09 392.807C2298.99 399.448 2298.99 399.448 2260.15 420.764C2218.87 443.417 2168.34 440.853 2129.57 414.135C2097.75 392.211 2056.29 390.107 2022.42 408.696L2018.35 410.932L2006.37 417.506C1980.37 431.77 1948.56 430.155 1924.15 413.333L1915.87 407.627C1883.46 385.298 1841.24 383.155 1806.74 402.087L1805.6 402.715L1803.31 403.968C1774.02 420.045 1738.16 418.225 1710.65 399.264L1702.44 393.608C1663.88 367.043 1613.65 364.493 1572.6 387.018C1540.13 404.839 1500.38 402.822 1469.88 381.804L1466.11 379.205L1410.2 340.687L1404.89 348.401L1460.8 386.919L1464.57 389.518C1497.99 412.545 1541.53 414.756 1577.11 395.231C1615.05 374.409 1661.48 376.766 1697.12 401.322L1705.33 406.979C1735.77 427.948 1775.42 429.961 1807.82 412.182L1810.1 410.927L1811.24 410.301C1842.64 393.072 1881.06 395.022 1910.56 415.341L1918.84 421.048C1946.17 439.878 1981.78 441.686 2010.87 425.719L2022.8 419.172L2026.92 416.909C2057.69 400.023 2095.35 401.935 2124.26 421.85C2165.95 450.576 2220.27 453.334 2264.65 428.977C2303.49 407.661 2303.49 407.661 2315.59 401.02L2311.09 392.807Z" fill="#E3E8F0"/>
                    <path opacity="0.3" d="M2313.24 350.312C2301.14 356.953 2301.14 356.953 2262.3 378.269C2221.02 400.923 2170.5 398.358 2131.72 371.64C2099.91 349.717 2058.45 347.612 2024.58 366.201L2020.5 368.437L2008.52 375.011C1982.53 389.275 1950.72 387.66 1926.3 370.838L1918.02 365.132C1885.62 342.804 1843.4 340.66 1808.9 359.592L1807.75 360.22L1805.47 361.473C1776.17 377.55 1740.32 375.73 1712.8 356.77L1704.59 351.113C1666.04 324.548 1615.8 321.998 1574.76 344.523C1542.28 362.344 1502.54 360.327 1472.04 339.309L1468.27 336.712C1426.34 307.821 1426.34 307.821 1412.36 298.192L1407.05 305.907C1421.02 315.536 1421.02 315.536 1462.95 344.425L1466.72 347.024C1500.14 370.05 1543.69 372.261 1579.26 352.736C1617.21 331.914 1663.64 334.271 1699.28 358.828L1707.49 364.484C1737.92 385.453 1777.57 387.466 1809.97 369.687L1812.26 368.432L1813.4 367.805C1844.8 350.577 1883.22 352.527 1912.71 372.847L1920.99 378.552C1948.32 397.384 1983.93 399.191 2013.03 383.224L2024.96 376.677L2029.08 374.414C2059.85 357.528 2097.51 359.44 2126.41 379.355C2168.1 408.081 2222.42 410.839 2266.81 386.482C2305.65 365.166 2305.65 365.166 2317.75 358.525L2313.24 350.312Z" fill="#E3E8F0"/>
                    <path opacity="0.3" d="M2315.4 307.817C2303.3 314.459 2303.3 314.458 2264.46 335.774C2223.18 358.428 2172.65 355.863 2133.88 329.145C2102.06 307.222 2060.6 305.117 2026.73 323.707L2022.61 325.968L2022.45 326.054L2010.68 332.516C1984.69 346.78 1952.87 345.165 1928.46 328.343L1920.18 322.637C1887.77 300.309 1845.55 298.166 1811.05 317.098L1807.62 318.977C1778.33 335.055 1742.47 333.235 1714.96 314.275L1706.75 308.618C1668.19 282.053 1617.96 279.503 1576.91 302.028C1544.44 319.85 1504.69 317.832 1474.19 296.814L1470.41 294.213L1414.52 255.696L1409.2 263.411L1465.1 301.927L1468.88 304.529C1502.3 327.556 1545.84 329.766 1581.42 310.241C1619.36 289.42 1665.8 291.777 1701.43 316.333L1709.64 321.989C1740.08 342.959 1779.73 344.971 1812.13 327.191L1815.55 325.311C1846.95 308.082 1885.38 310.032 1914.87 330.352L1923.15 336.058C1950.48 354.889 1986.09 356.696 2015.18 340.729L2026.96 334.267L2027.11 334.182L2031.23 331.92C2062 315.034 2099.66 316.945 2128.57 336.86C2170.26 365.586 2224.58 368.344 2268.96 343.987C2307.8 322.672 2307.8 322.672 2319.9 316.03L2315.4 307.817Z" fill="#E3E8F0"/>
                    <path opacity="0.3" d="M1809.78 276.483C1780.48 292.56 1744.63 290.74 1717.11 271.779C1713.03 268.965 1713.03 268.965 1708.9 266.124C1670.35 239.558 1620.11 237.009 1579.07 259.533C1546.59 277.354 1506.85 275.337 1476.35 254.319L1472.58 251.723C1430.65 222.831 1430.65 222.831 1416.67 213.201L1411.36 220.916C1425.34 230.546 1425.34 230.546 1467.26 259.437L1471.03 262.034C1504.45 285.06 1547.99 287.27 1583.57 267.746C1621.52 246.925 1667.95 249.282 1703.59 273.838C1707.72 276.68 1707.72 276.68 1711.8 279.494C1742.23 300.464 1781.89 302.477 1814.28 284.696L1817.71 282.816C1849.11 265.587 1887.53 267.537 1917.02 287.857L1925.3 293.562C1952.63 312.394 1988.24 314.202 2017.34 298.235L2029.23 291.704L2033.39 289.424C2064.16 272.539 2101.82 274.451 2130.72 294.365C2172.41 323.091 2226.73 325.848 2271.12 301.492C2309.96 280.177 2309.96 280.177 2322.06 273.536L2317.55 265.322C2305.45 271.964 2305.45 271.964 2266.61 293.278C2225.33 315.932 2174.81 313.368 2136.03 286.65C2104.22 264.727 2062.76 262.622 2028.89 281.211L2024.76 283.473L2012.83 290.022C1986.84 304.285 1955.03 302.67 1930.61 285.847L1922.33 280.142C1889.93 257.814 1847.71 255.671 1813.21 274.603L1809.78 276.483Z" fill="#E3E8F0"/>
                    <path opacity="0.3" d="M2319.71 222.828C2307.61 229.469 2307.61 229.469 2268.77 250.784C2227.49 273.437 2176.96 270.873 2138.19 244.156C2106.37 222.232 2064.91 220.128 2031.04 238.716L2026.92 240.978L2014.99 247.527C1988.99 261.79 1957.18 260.175 1932.77 243.352L1924.49 237.647C1892.08 215.319 1849.86 213.175 1815.36 232.108L1811.93 233.988C1782.64 250.065 1746.79 248.245 1719.27 229.284L1711.06 223.628C1672.5 197.064 1622.27 194.514 1581.22 217.037C1548.75 234.859 1509.01 232.842 1478.5 211.824L1474.73 209.228C1453.76 194.779 1453.76 194.779 1436.29 182.742L1418.83 170.706L1413.51 178.421L1430.98 190.457C1448.45 202.494 1448.45 202.494 1469.41 216.938L1473.19 219.539C1506.61 242.566 1550.15 244.775 1585.73 225.25C1623.67 204.43 1670.11 206.787 1705.75 231.343L1713.96 236.999C1744.39 257.968 1784.04 259.981 1816.44 242.201L1819.87 240.322C1851.26 223.091 1889.69 225.042 1919.18 245.362L1927.46 251.067C1954.79 269.899 1990.4 271.706 2019.49 255.74L2031.39 249.21L2035.55 246.929C2066.32 230.044 2103.97 231.956 2132.88 251.87C2174.57 280.596 2228.89 283.353 2273.27 258.997C2312.11 237.682 2312.11 237.682 2324.21 231.041L2319.71 222.828Z" fill="#E3E8F0"/>
                </g>
                <path fill-rule="evenodd" clip-rule="evenodd" d="M1178.36 286.847C1218.63 296.037 1251.51 299.05 1246.5 335.524C1238.22 395.923 1153.7 426.628 1068.1 414.881C1016.33 407.777 969.237 382.782 944.151 351.238C991.596 363.37 1041.61 369.859 1104.09 343.099C1129.16 332.361 1153.7 312.121 1178.36 286.847V286.847Z" fill="#D6DCE7"/>
                <path fill-rule="evenodd" clip-rule="evenodd" d="M1121.9 200.553C1134.8 236.799 1183.36 234.399 1200.7 206.513C1222.87 170.87 1256.83 184.78 1256.57 154.474C1256.34 128.188 1216.52 123.683 1178.38 130.092C1140.23 136.501 1113.08 175.781 1121.9 200.553Z" fill="#F1F3F6"/>
                <path fill-rule="evenodd" clip-rule="evenodd" d="M675.995 49.4736C689.423 37.9728 680.403 17.5209 665.586 14.6635C646.647 11.0105 647.027 -5.85395 634.069 -0.756317C622.828 3.66498 627.447 21.5001 636.473 36.8204C645.499 52.1406 666.819 57.3335 675.995 49.4736Z" fill="#F1F3F6"/>
            </g>
        </g>
    </g>
    <rect width="1838" height="466" fill="url(#paint1_linear)"/>
    <defs>
        <linearGradient id="paint0_linear" x1="1058.01" y1="606.28" x2="1217.31" y2="-145.307" gradientUnits="userSpaceOnUse">
            <stop stop-color="#D9DEE7"/>
            <stop offset="1" stop-color="#4C5B78"/>
        </linearGradient>
        <linearGradient id="paint1_linear" x1="919" y1="0" x2="919" y2="466" gradientUnits="userSpaceOnUse">
            <stop stop-color="#F4F6FA" stop-opacity="0"/>
            <stop offset="1" stop-color="#F4F6FA"/>
        </linearGradient>
        <clipPath id="clip0">
            <rect width="1838" height="466" fill="white"/>
        </clipPath>
    </defs>
</svg>
