<?xml version="1.0" encoding="utf-8"?>
<!-- Generator: Adobe Illustrator 24.0.0, SVG Export Plug-In . SVG Version: 6.00 Build 0)  -->
<svg version="1.1" id="trafft-brandmark-default" xmlns="http://www.w3.org/2000/svg" xmlns:xlink="http://www.w3.org/1999/xlink"
	 x="0px" y="0px" viewBox="0 0 256 256" style="enable-background:new 0 0 256 256;" xml:space="preserve">
<style type="text/css">
	.st0{fill:#5ABCFF;}
	.st1{fill:url(#SVGID_1_);}
</style>
<g id="BRANDMARK_24_">
	<circle class="st0" cx="128.2" cy="32.2" r="32"/>
	<circle class="st0" cx="224.2" cy="32.2" r="32"/>
	<circle class="st0" cx="128.2" cy="224.2" r="32"/>
	<linearGradient id="SVGID_1_" gradientUnits="userSpaceOnUse" x1="0.1948" y1="128.1971" x2="256.1993" y2="128.1971">
		<stop  offset="0" style="stop-color:#5ABCFF"/>
		<stop  offset="0.8997" style="stop-color:#005AEE"/>
	</linearGradient>
	<path class="st1" d="M224.2,192.2c-1.7,0-3.4,0.2-5,0.4l0,0c-22.1,3.5-54-25.1-59-49.3v-31.1c0-8.8-7.2-16-16-16h-31.1
		C92.4,91.9,68.5,68,64.2,47.3V0.2h-64v64h47.1c20.7,4.3,44.6,28.2,48.9,48.9v31.1c0,8.8,7.2,16,16,16h31.1
		c24.2,5,52.8,36.9,49.3,59l0,0c-0.3,1.6-0.4,3.3-0.4,5c0,19.8,17.9,35.4,38.4,31.4c12.5-2.4,22.5-12.5,25-25
		C259.6,210.1,244,192.2,224.2,192.2z"/>
</g>
</svg>
